# xmcd
#
# Track frame offsets:
#	150
#	32631
#	44832
#	53086
#	67762
#	76500
#	94990
#	105221
#	125682
#	142417
#	156956
#	167854
#	180912
#	193663
#	201780
#	223829
#
# Disc length: 3220 seconds
#
# Revision: 0
# Processed by: cddbd v1.4PL0 Copyright (c) Steve Scherf et al.
# Submitted via: dBpowerAMP V4.0
#
DISCID=e10c9210
DTITLE=Jerry Clower - Greatest Hits
DYEAR=1994
DGENRE=Comedy
TTITLE0=A Coon Huntin' Story
TTITLE1=Marcel Ledbetter Moving Company
TTITLE2=The New Chandelier
TTITLE3=The She Coon Of Women's Lib
TTITLE4=Newgene And The Lion
TTITLE5=The Resort Hotel
TTITLE6=Wanna Buy A Possum?
TTITLE7=Steel Marbles
TTITLE8=Marcel's Talkin' Chain Saw
TTITLE9=A New Bull
TTITLE10=The Burning Building
TTITLE11=Bird Huntin' At Uncle Versies
TTITLE12=The Coon Huntin' Monkey
TTITLE13=Claude And The Game Warden
TTITLE14=The Chauffeur And The Professor
TTITLE15=Sittin' Up With The Dead
EXTD=
EXTT0=
EXTT1=
EXTT2=
EXTT3=
EXTT4=
EXTT5=
EXTT6=
EXTT7=
EXTT8=
EXTT9=
EXTT10=
EXTT11=
EXTT12=
EXTT13=
EXTT14=
EXTT15=
PLAYORDER=
